<svg width="57" height="48" viewBox="0 0 57 48" fill="none" xmlns="http://www.w3.org/2000/svg">
<path d="M56.3478 18.6947C56.3478 15.9158 54.6961 13.3895 52.1551 12.2526C51.5198 8.33684 48.28 5.30526 44.3414 4.98947C43.2614 2.77895 40.9745 1.32632 38.4334 1.32632C38.1158 1.32632 37.7981 1.38947 37.4805 1.38947H37.417C37.0994 1.45263 36.7182 1.51579 36.4006 1.64211C35.13 0.631579 33.5419 0 31.8902 0C30.5561 0 29.2221 0.378947 28.1421 1.13684C26.9987 0.631579 25.7281 0.378948 24.3941 0.378948C21.7895 0.378948 19.312 1.45263 17.5968 3.41053C17.025 3.28421 16.5168 3.22105 15.9451 3.22105C13.6582 3.22105 11.5618 4.35789 10.3548 6.31579C10.2913 6.31579 10.1642 6.31579 10.1007 6.31579C9.97363 6.31579 9.84658 6.31579 9.78305 6.31579C9.656 6.31579 9.52894 6.37895 9.40189 6.37895C9.27484 6.37895 9.21131 6.44211 9.08426 6.44211C8.95721 6.44211 8.83015 6.50526 8.7031 6.56842C8.57605 6.56842 8.51252 6.63158 8.38547 6.63158C8.25842 6.69474 8.13137 6.69474 8.06784 6.75789C7.94079 6.82105 7.81373 6.82105 7.75021 6.88421C7.68668 6.94737 7.55963 6.94737 7.4961 7.01053C7.36905 7.07368 7.242 7.13684 7.11494 7.2C4.89152 8.4 3.36689 10.7368 3.17631 13.3895V13.4526C1.14347 15.3474 0 18.0632 0 20.8421C0 26.4632 4.63742 31.0737 10.2913 31.0737C10.863 31.0737 11.4983 31.0105 12.07 30.9474C12.8323 31.2 13.6582 31.3263 14.484 31.3895C16.1357 35.4316 19.439 37.5789 23.9494 37.5789C28.2692 37.5789 33.4784 41.9368 33.4784 47.0526V48H40.7204L39.8945 42.1263C44.9131 42.6316 49.6776 39.4105 50.9481 34.4211C51.1387 33.5368 51.2657 32.6526 51.2657 31.8316C54.2515 30.7579 56.3478 27.9158 56.3478 24.6947C56.3478 23.6211 56.1572 22.6105 55.7126 21.6632C56.0937 20.7158 56.3478 19.7053 56.3478 18.6947ZM53.6162 22.1053C54.0609 22.9263 54.2515 23.7474 54.2515 24.6947C54.2515 26.8421 52.9809 28.8 51.0116 29.6842C50.1858 25.9579 47.2636 22.9263 43.5155 21.9789C42.9438 21.8526 42.372 22.1684 42.245 22.7368C42.1179 23.3053 42.4356 23.8737 43.0073 24C46.3742 24.8211 48.8517 27.6632 49.1693 31.0737C49.2964 32.0211 49.1694 32.9684 48.9788 33.9158C47.8353 38.3368 43.3885 40.9895 38.9416 39.8526L37.4805 39.4737L38.3699 45.9158H35.4477C34.8124 39.9789 28.8409 35.3684 23.8859 35.3684C20.4555 35.3684 18.0415 33.9789 16.6439 31.2C16.6439 31.1368 16.6439 31.0737 16.5804 31.0105C15.5004 28.8 16.4533 26.0842 18.7403 25.0105C19.2485 24.7579 19.5026 24.1263 19.2485 23.6211C18.9944 23.1158 18.3591 22.8632 17.8509 23.1158C15.4369 24.2526 14.1028 26.6526 14.1028 29.1158C13.5311 29.0526 12.9594 28.9263 12.4512 28.7368L12.197 28.6105L11.9429 28.6737C11.4347 28.8 10.863 28.8632 10.2913 28.8632C5.78089 28.8632 2.03284 25.2 2.03284 20.6526C2.03284 19.0105 2.54105 17.3684 3.49395 16.0421C4.25626 18.4421 6.2891 20.3368 8.76663 20.9684C8.57605 21.2842 8.449 21.6 8.38547 21.9158C8.13137 23.0526 8.25842 24.1895 8.89368 25.2C9.08426 25.5158 9.40189 25.7053 9.78305 25.7053C9.97363 25.7053 10.1642 25.6421 10.2913 25.5789C10.7995 25.2632 10.9265 24.6316 10.6724 24.1895C10.3548 23.6842 10.2913 23.0526 10.4183 22.4842C10.5454 21.9158 10.9265 21.4105 11.4347 21.0947C11.9429 20.7789 12.07 20.1474 11.8159 19.7053C11.5618 19.3263 11.1171 19.1368 10.6724 19.2632C7.68668 19.2 5.20916 16.7368 5.20916 13.7684C5.20916 10.7368 7.68668 8.27368 10.7359 8.27368C10.7995 8.27368 10.7995 8.27368 10.863 8.27368L11.6888 8.33684L12.0065 7.70526C12.7688 6.12632 14.3569 5.17895 16.0722 5.17895C16.6439 5.17895 17.1521 5.30526 17.7238 5.49474L18.4226 5.74737L18.8673 5.11579C20.2014 3.34737 22.2977 2.33684 24.5211 2.33684C25.6646 2.33684 26.8716 2.65263 27.888 3.15789L28.5233 3.47368L29.0315 3.03158C29.8574 2.33684 30.8738 1.95789 31.9537 1.95789C32.8431 1.95789 33.7325 2.21053 34.4313 2.71579C32.9066 3.91579 31.8902 5.74737 31.8902 7.83158C31.8902 8.4 32.3349 8.8421 32.9066 8.8421C33.4784 8.8421 33.923 8.4 33.923 7.83158C33.923 6.12632 34.8759 4.67368 36.21 3.91579L36.5276 3.78947C37.1629 3.53684 37.7981 3.34737 38.4334 3.34737C40.3392 3.34737 41.9909 4.54737 42.6897 6.31579L42.9438 7.01053H43.6426C47.073 7.01053 49.9317 9.72632 50.1858 13.0737L50.2493 13.7684L50.8846 13.9579C52.9174 14.6526 54.315 16.5474 54.315 18.6947C54.315 19.5158 54.1244 20.4 53.6797 21.0947L53.4256 21.6L53.6162 22.1053ZM31.7631 27.3474C31.7631 25.4526 30.8103 23.6842 29.2221 22.6105C26.4905 21.3474 24.5847 18.7579 24.2035 15.7895C24.14 15.3474 24.4576 14.9053 24.9023 14.8421C25.347 14.7789 25.7917 15.0947 25.8552 15.5368C26.2364 18.2526 28.0786 20.5263 30.6832 21.4105C32.5255 22.0421 34.4948 21.9158 36.2735 21.0947C38.0522 20.2737 39.3228 18.7579 39.958 16.9263C40.0851 16.4842 40.5933 16.2947 41.038 16.4211C41.4827 16.5474 41.6732 17.0526 41.5462 17.4947C40.7839 19.7684 39.1322 21.5368 36.9723 22.5474C35.7653 23.1158 34.4312 23.4316 33.0972 23.4316C32.8431 23.4316 32.589 23.4316 32.2714 23.3684C32.9701 24.5053 33.4148 25.8316 33.4148 27.2842C33.4148 27.7263 33.0337 28.1053 32.589 28.1053C32.1443 28.1053 31.7631 27.7895 31.7631 27.3474ZM47.4541 17.8737C47.4541 18.3158 47.073 18.6947 46.6283 18.6947C46.1836 18.6947 45.8025 18.3158 45.8025 17.8737C45.8025 14.1474 42.7532 11.1158 39.0051 11.1158C38.5605 11.1158 38.1793 10.7368 38.1793 10.2947C38.1793 9.85263 38.5605 9.47368 39.0051 9.47368C43.6426 9.47368 47.4541 13.2632 47.4541 17.8737ZM25.6011 9.41053C25.6011 8.96842 25.9823 8.58947 26.4269 8.58947C30.0479 8.58947 33.0337 11.4947 33.0337 15.1579C33.0337 15.6 32.6525 15.9789 32.2078 15.9789C31.7631 15.9789 31.382 15.6 31.382 15.1579C31.382 12.4421 29.1586 10.2316 26.4269 10.2316C25.9823 10.2316 25.6011 9.85263 25.6011 9.41053ZM23.6318 28.1684C23.5047 28.4211 23.1871 28.5474 22.933 28.5474C22.8059 28.5474 22.6154 28.4842 22.4883 28.4211C22.1071 28.1684 21.9801 27.6632 22.2342 27.2842C23.6318 25.0737 22.933 22.1684 20.7096 20.7789C20.3284 20.5263 20.2014 20.0211 20.4555 19.6421C20.7096 19.2632 21.2178 19.1368 21.5989 19.3895C24.5847 21.2842 25.474 25.2 23.6318 28.1684ZM22.8695 13.6421C21.5989 13.6421 20.4555 13.0737 19.5661 12.2526C18.105 14.3368 15.691 15.4737 13.277 15.4737C12.0065 15.4737 10.6724 15.1579 9.46542 14.4632C9.08426 14.2105 8.95721 13.7053 9.14779 13.3263C9.40189 12.9474 9.9101 12.8211 10.2913 13.0105C13.1499 14.6526 16.8345 13.7053 18.5497 10.8C18.232 10.1053 18.0415 9.34737 18.0415 8.58947C18.0415 8.14737 18.4226 7.76842 18.8673 7.76842C19.312 7.76842 19.6932 8.14737 19.6932 8.58947C19.6296 10.3579 21.0907 11.8737 22.8695 11.9368C23.3141 11.9368 23.6953 12.3158 23.6953 12.7579C23.6953 13.3263 23.3141 13.6421 22.8695 13.6421ZM42.245 29.6842C42.6261 29.9368 42.6897 30.4421 42.4356 30.8211C40.8474 33.0947 38.3064 34.3579 35.7018 34.3579C34.1136 34.3579 32.5255 33.9158 31.1279 32.9684C30.7467 32.7158 30.6832 32.2105 30.9373 31.8316C31.1914 31.4526 31.6996 31.3895 32.0808 31.6421C33.5419 32.5895 35.2571 32.9684 36.9723 32.6526C38.6875 32.3368 40.1486 31.3895 41.165 29.9368C41.3556 29.5579 41.8638 29.4316 42.245 29.6842Z" fill="#0FAC73"/>
</svg>
