<svg width="44" height="62" viewBox="0 0 44 62" fill="none" xmlns="http://www.w3.org/2000/svg">
<path d="M42.9625 18.4844C42.9625 18.4844 41.8825 18.4727 40.5567 18.4657V14.1368C40.5567 13.9095 40.3852 13.7197 40.1604 13.6986C38.2066 13.5204 36.3941 13.4173 34.7624 13.3892C33.592 11.5869 32.0206 10.1314 30.8872 9.21738C30.871 9.20332 29.536 8.13925 28.6947 7.6916C28.9496 6.79395 29.6287 4.4151 30.1085 2.73932C30.1734 2.51197 30.0505 2.27526 29.828 2.20026L26.3353 1.02373C26.1104 0.948733 25.8671 1.06826 25.7883 1.29326L23.6907 7.26037L21.6419 7.71974L20.6545 1.57461C20.636 1.45742 20.5688 1.35196 20.4714 1.28398C20.3741 1.21602 20.2535 1.19024 20.1377 1.21602L16.4919 1.98239C16.2601 2.03161 16.1118 2.2566 16.1535 2.49098L16.7353 5.73232L15.4212 6.25966L12.867 1.2394C12.7558 1.02612 12.4985 0.939403 12.2853 1.04487L8.79249 2.78623C8.6882 2.83779 8.6094 2.9292 8.57231 3.03935C8.53523 3.14951 8.5445 3.27138 8.59549 3.37685L11.2052 8.65259C8.56072 11.9971 7.87927 15.0653 7.72168 16.7645C5.87214 17.5121 4.47454 18.7145 3.5614 20.3457C1.98069 23.1699 -0.325422 29.1044 1.96218 37.1059V37.1083V37.1106C3.04686 40.9051 5.04936 44.7485 7.91393 48.5339C10.8157 52.3659 13.6897 55.7032 16.455 58.4524C18.1099 60.1 20.2885 61 22.6013 61C22.6546 61 22.7103 61 22.7636 60.9977C25.1485 60.9531 27.3689 59.964 29.0096 58.211C33.7609 53.1368 39.5971 45.8481 40.4153 39.9346C40.7537 37.4971 40.9275 35.2425 40.9345 33.2363C40.9507 29.2355 40.3087 26.3718 39.027 24.6888H42.9555C43.1966 24.6888 43.3913 24.4919 43.3913 24.2482V18.9232C43.3936 18.6842 43.2013 18.4868 42.9625 18.4844ZM19.8688 2.17001L20.8608 8.31993C20.8793 8.43946 20.9465 8.54493 21.0462 8.6129C21.1458 8.68087 21.2663 8.7043 21.3846 8.67853L24.1195 8.06449C24.2655 8.03168 24.3837 7.92621 24.4347 7.78325L26.4696 1.99427L29.1628 2.90128C28.8059 4.15281 27.8278 7.56761 27.7583 7.82309C27.756 7.83012 27.756 7.83715 27.756 7.84418C27.749 7.86996 27.7467 7.89574 27.7444 7.92152C27.7444 7.92856 27.7421 7.93793 27.7421 7.94496C27.7421 7.95199 27.7444 7.95902 27.7444 7.96606C27.7444 7.97074 27.7444 7.97777 27.7467 7.98246C27.7653 8.19339 27.9298 8.3598 28.1384 8.37855C28.7063 8.62933 31.7054 10.5817 33.7079 13.3777C27.8765 13.3847 24.2608 14.3832 22.3675 16.5019C21.6838 17.2682 21.7672 18.2667 21.8483 19.2346C22.0036 21.1026 22.1635 23.0361 17.4771 24.4119C16.2185 24.7822 14.8534 25.4197 13.4095 26.3104C13.2959 24.2034 13.282 20.1958 14.413 16.4903C15.2335 13.7973 16.5152 11.7419 18.2211 10.3847C18.3485 10.284 18.4088 10.1199 18.381 9.96054L17.6532 5.93872C17.6532 5.93404 17.6509 5.93169 17.6509 5.92935L17.083 2.75827L19.8688 2.17001ZM12.1091 8.51433L9.57125 3.38157L12.2876 2.02691L14.8255 7.01903C14.9274 7.22059 15.1638 7.30965 15.3724 7.22762L16.8906 6.61827L17.4723 9.86669C15.7966 11.2753 14.5241 13.3073 13.6805 15.9086C12.2992 15.8383 10.4427 15.9039 8.63256 16.45C8.85274 14.7625 9.61293 11.9969 12.0558 8.99211C12.1647 8.85383 12.1856 8.66902 12.1091 8.51433ZM4.31685 20.7788C5.16745 19.2577 6.50246 18.1491 8.28246 17.4858C10.0625 16.8226 11.9769 16.7171 13.4185 16.771C12.3199 20.7623 12.4311 24.9555 12.5633 26.8515C8.40991 29.6358 4.50695 33.8522 2.58336 36.074C0.750073 28.7829 2.85667 23.3918 4.31685 20.7788ZM28.3819 57.6058C26.9009 59.1878 24.9007 60.0784 22.7499 60.1182C20.6083 60.1557 18.5896 59.3448 17.0645 57.8284C14.3273 55.1073 11.4811 51.8003 8.60476 48.0011C5.86059 44.3777 3.93225 40.71 2.86377 37.0933C4.61363 35.0331 8.81551 30.3595 13.2519 27.4466C14.8557 26.3942 16.3553 25.6583 17.7111 25.2599C23.079 23.6826 22.8634 21.0716 22.7058 19.164C22.6317 18.2757 22.5737 17.5749 23.0048 17.0945C24.7802 15.107 28.5465 14.1812 34.5191 14.2656C36.0789 14.2867 37.8149 14.3781 39.6876 14.5398V18.4633C38.0304 18.4586 36.8785 18.4679 36.262 18.4843C35.2561 18.5148 33.3834 18.5734 32.2245 19.9609C31.3763 20.978 31.075 22.5437 31.3253 24.6085C30.3542 25.5577 29.1513 27.4889 30.5303 30.5967C30.8224 31.2553 31.214 31.8365 31.6846 32.3381C32.118 34.7802 31.6637 37.1122 30.324 39.2662C30.0088 39.7748 29.6356 40.2833 29.2138 40.7779C28.7318 41.3404 28.2706 41.8935 27.8394 42.4232C26.8985 42.1232 25.9343 41.8654 24.9631 41.6568C24.0036 40.3068 23.5401 38.378 23.6235 36.0647C23.6328 35.8233 23.445 35.617 23.204 35.61C22.9583 35.6006 22.7613 35.7905 22.7544 36.0342C22.6756 38.1905 23.0255 39.9998 23.795 41.4295C23.7417 41.4201 23.6861 41.4084 23.6328 41.399C23.6305 41.399 23.6281 41.399 23.6258 41.3967H23.6235C21.4935 41.0357 19.454 40.9326 17.5578 41.0873C17.3191 41.106 17.1406 41.3193 17.1592 41.5607C17.1777 41.8021 17.391 41.9826 17.6274 41.9638C19.069 41.8443 20.601 41.8865 22.1956 42.0787C20.645 43.0232 18.5521 44.706 17.931 47.1505C17.8707 47.3849 18.0121 47.6263 18.2439 47.6848C18.2809 47.6942 18.3157 47.6989 18.3528 47.6989C18.5475 47.6989 18.7236 47.5677 18.7746 47.3684C19.4792 44.5958 22.52 42.8427 23.6256 42.2872C23.9501 42.3435 24.2746 42.4044 24.6199 42.4771C25.5053 42.6622 26.3884 42.8919 27.2505 43.1567C23.3429 48.1301 22.1863 51.3622 22.9906 54.9316C23.0369 55.1355 23.2154 55.2738 23.4147 55.2738C23.4471 55.2738 23.4796 55.2691 23.512 55.2621C23.7461 55.2082 23.8921 54.9714 23.8388 54.7347C23.0763 51.3504 24.2931 48.226 28.3282 43.2035C28.8057 42.6105 29.3249 41.9871 29.8719 41.3472C30.1801 40.9863 30.4629 40.6159 30.7202 40.2457C31.6009 41.4878 32.5002 43.4894 32.5002 46.4868C32.5002 46.7306 32.6949 46.9274 32.9359 46.9274C33.1769 46.9274 33.3716 46.7306 33.3716 46.4868C33.3716 43.0322 32.2452 40.7845 31.2231 39.4555C32.579 37.1375 32.8154 34.911 32.6763 33.1886C33.951 34.0722 35.5108 34.4682 37.0266 34.4682C38.0997 34.4682 39.1496 34.269 40.0628 33.9081C40.0234 35.701 39.8566 37.6792 39.5622 39.8072C38.7696 45.4954 33.045 52.6249 28.3814 57.6054L28.3819 57.6058ZM32.3985 31.8271C31.9535 31.3794 31.5919 30.845 31.3231 30.238C30.1503 27.599 31.0844 25.9912 32.0717 25.1076C32.6905 24.5545 33.3233 24.2896 33.6477 24.1795C34.3407 23.9428 34.9804 23.8256 35.5622 23.8256C36.4151 23.8256 37.1475 24.0787 37.7478 24.5873C39.2496 25.8552 40.0516 28.7474 40.0678 32.959C37.8521 33.9785 34.3872 33.8497 32.3985 31.8271ZM42.522 23.8094H38.174C36.9316 22.839 35.3162 22.682 33.3693 23.3453C32.9475 23.4883 32.5233 23.6992 32.134 23.9593C32.0204 22.4218 32.2731 21.2687 32.8896 20.5281C33.7263 19.5226 35.0821 19.4008 36.2873 19.3633C36.9479 19.3445 38.2366 19.3375 40.1208 19.3422C41.1082 19.3469 42.0144 19.3539 42.5243 19.3586L42.522 23.8094Z" fill="#0FAC73" stroke="#0FAC73" stroke-width="1.18926"/>
</svg>
