<svg width="54" height="55" viewBox="0 0 54 55" fill="none" xmlns="http://www.w3.org/2000/svg">
<path d="M19.4517 1.68994V9.23834C19.4517 12.0144 21.7078 14.2705 24.4839 14.2705H27C27 14.2705 32.0323 5.04474 42.9355 8.39964C52.8491 11.4525 53 25.1738 53 27.6899C53 31.0447 51.3226 49.4964 32.871 49.4964C29.5162 49.4964 21.9678 49.4964 16.9355 45.3028C16.8852 45.2609 16.8349 45.2189 16.7846 45.177C13.1362 42.2499 7.7097 44.9338 7.7097 49.6138V53.6899M1 53.6899V50.3351C1 43.3905 6.6361 37.7544 13.5806 37.7544H18.6129C18.6129 37.7544 21.129 34.3996 26.1613 34.3996C26.1613 34.3996 26.1613 31.0447 29.5161 29.3673C29.5161 29.3673 26.1613 26.0125 27 20.9802H23.6452C17.6232 20.9802 12.7419 16.0989 12.7419 10.077V1.68994" stroke="#0FAC73" stroke-width="2" stroke-miterlimit="10" stroke-linecap="square" stroke-linejoin="round"/>
</svg>
