<svg width="60" height="44" viewBox="0 0 60 44" fill="none" xmlns="http://www.w3.org/2000/svg">
<path d="M59.1025 35.9997L54.6118 12.8205C53.5912 7.69224 49.5088 3.58999 44.3039 2.76947C42.0586 2.35921 39.8132 2.9746 37.9761 4.4105C36.2411 5.8464 35.1184 7.89769 35.0164 10.2566L34.9144 11.4874L33.4855 10.0515C33.2814 9.84639 33.1793 9.64126 33.1793 9.33353V1.23077C33.1793 0.615387 32.7711 0.205129 32.1587 0.205129C31.5464 0.205129 31.1381 0.615387 31.1381 1.23077V9.33353C31.1381 10.154 31.4443 10.9746 32.0566 11.4874L34.8123 14.2566L34.6082 17.9489L31.8525 15.1797C30.6278 13.8464 28.5866 13.8464 27.4639 14.9745L24.7082 17.7438L24.5041 14.0515L27.2598 11.2822C27.8721 10.6668 28.1783 9.94892 28.1783 9.1284V1.02564C28.1783 0.410258 27.77 0 27.1577 0C26.5453 0 26.1371 0.410258 26.1371 1.02564V9.1284C26.1371 9.4361 26.035 9.64123 25.8309 9.84639L24.402 11.2823L24.3 10.0515C24.1979 7.7951 23.0752 5.64121 21.3402 4.20537C19.6053 2.76954 17.2578 2.15408 15.0125 2.56434C9.70535 3.58999 5.62293 7.58997 4.602 12.8208L0.111339 36C-0.296903 38.3591 0.41752 40.718 2.25458 42.2564C3.4793 43.3847 5.11227 44 6.74524 44C7.3576 44 8.07199 43.8974 8.68442 43.6923L18.4822 40.718C22.8709 39.3847 25.7287 35.2821 25.4223 30.667L24.81 20.5129L28.8924 16.4104C29.3006 16.0001 29.913 16.0001 30.3212 16.4104L34.4037 20.5129L33.7913 30.667C33.4851 35.1798 36.3428 39.3848 40.7314 40.718L50.5292 43.6923C51.1416 43.8974 51.856 44 52.4684 44C54.1014 44 55.6323 43.3846 56.9591 42.2564C58.7962 40.7179 59.5107 38.3587 59.1025 35.9997ZM17.8701 38.769L8.07225 41.7433C6.54131 42.2561 4.80632 41.8459 3.58159 40.7177C2.35687 39.5895 1.8466 37.9484 2.15274 36.3074L6.64341 13.0251C7.45989 8.71736 10.9299 5.33257 15.3184 4.51205C15.6246 4.40949 15.9307 4.40949 16.339 4.40949C17.6657 4.40949 18.9926 4.81974 20.0132 5.74279C21.3399 6.76843 22.1564 8.40947 22.2585 10.0505L23.4832 30.5634C23.5853 34.3582 21.3402 37.6406 17.8701 38.769ZM55.6321 40.7177C54.4074 41.846 52.7744 42.1536 51.1415 41.7434L41.3436 38.7691C37.8736 37.7434 35.6283 34.4613 35.8324 30.8717L37.0571 10.3588C37.1592 8.71782 37.9756 7.07679 39.3024 6.05114C40.6293 5.0255 42.3643 4.51264 43.9972 4.82037C48.2838 5.53835 51.7538 8.92295 52.6722 13.3334L57.0608 36.4102C57.367 38.0513 56.8568 39.6921 55.6321 40.7177Z" fill="#0FAC73"/>
</svg>
