<svg width="40" height="42" viewBox="0 0 40 42" fill="none" xmlns="http://www.w3.org/2000/svg">
<path fill-rule="evenodd" clip-rule="evenodd" d="M22.8271 26.3972C23.5242 26.717 23.8634 27.5275 24.1445 28.5071C24.733 30.5564 24.8454 33.3538 25.2633 35.7373C25.5219 37.2132 25.9004 38.542 26.5095 39.5142C27.2403 40.6795 28.2804 41.3944 29.7833 41.4275C32.0058 41.4771 33.5143 39.8579 34.3914 37.3161C35.4239 34.3221 35.6338 30.0158 35.7369 26.6949C35.8006 24.6604 35.8006 23.0265 35.9974 22.4237C36.627 20.4865 38.13 18.9353 38.8121 17.0407C40.3956 12.6334 40.8697 6.39178 37.2042 2.77503C37.0862 2.65924 36.9306 2.50302 36.747 2.32291C34.5938 0.187249 31.3782 -0.549746 28.4811 0.429887C25.7582 1.34699 22.2541 2.37805 20.0013 2.37805C17.7488 2.37805 14.2425 1.34882 11.5215 0.428052C8.62243 -0.553369 5.40676 0.183612 3.24987 2.32291L2.79637 2.77503C-0.870974 6.39202 -0.394981 12.6335 1.18848 17.0407C1.86875 18.9355 3.37354 20.4867 4.00319 22.4237C4.19996 23.0265 4.19996 24.6604 4.26367 26.6949C4.36862 30.0179 4.57663 34.3241 5.60919 37.3161C6.4862 39.8579 7.9929 41.4771 10.2173 41.4275C11.7202 41.3944 12.7603 40.6795 13.4911 39.5142C14.1001 38.542 14.4806 37.2132 14.7373 35.7373C15.1552 33.3518 15.2677 30.5543 15.8561 28.5071C16.1372 27.5275 16.4764 26.717 17.1735 26.3972H22.831H22.8271ZM23.3331 24.5685C23.23 24.5336 23.1213 24.5152 23.0126 24.5152H16.9843C16.8756 24.5152 16.7669 24.5336 16.6638 24.5685C15.5394 24.9581 14.7524 25.912 14.2445 27.2647C13.6299 28.9005 13.4068 31.1721 13.1333 33.3813C12.9252 35.0611 12.6929 36.7042 12.1607 37.9319C11.7597 38.8582 11.1862 39.5254 10.1687 39.5493C9.30102 39.5676 8.67698 39.0824 8.18789 38.3418C7.56011 37.3897 7.15536 36.0554 6.86675 34.5722C6.21834 31.2199 6.21085 27.1308 6.10968 24.5153C6.06095 23.26 5.97475 22.3098 5.82671 21.8558C5.19144 19.9022 3.68099 18.3307 2.99516 16.4192C2.29619 14.4728 1.80892 12.1185 1.90827 9.85049C2.00197 7.70015 2.61852 5.62148 4.15516 4.10519C4.27322 3.9894 4.43064 3.83318 4.61241 3.64939C6.25028 2.02653 8.69204 1.46598 10.8941 2.21031C13.8137 3.19728 17.5821 4.26142 19.9995 4.26142C22.415 4.26142 26.1837 3.19545 29.1049 2.21214C31.3068 1.46781 33.7486 2.02652 35.3846 3.65122L35.8419 4.10518C37.3785 5.62147 37.9951 7.7001 38.0887 9.85049C38.1862 12.1185 37.7008 14.4728 37.0019 16.4192C36.3141 18.3324 34.8056 19.902 34.1703 21.8558C34.0223 22.3098 33.9361 23.26 33.8873 24.5152C33.7861 27.1306 33.7787 31.2199 33.1303 34.5722C32.8436 36.0554 32.4369 37.3897 31.8091 38.3418C31.32 39.0824 30.6941 39.5677 29.8283 39.5493C28.8108 39.5254 28.2373 38.8582 27.8363 37.9319C27.3041 36.7042 27.0699 35.0611 26.8638 33.3813C26.592 31.1721 26.3671 28.9005 25.7525 27.2647C25.2447 25.912 24.4575 24.96 23.3331 24.5685Z" fill="#0FAC73"/>
</svg>
